<svg xmlns="http://www.w3.org/2000/svg" width="40" height="40" version="1.0" viewBox="0 0 810 810">
  <defs>
    <clipPath id="e1aa8b1556">
      <path d="M108.848 167.5h590.93v469.91h-590.93zm0 0"/>
    </clipPath>
    <clipPath id="a237756b5b">
      <path d="M.848.5h590.93v469.91H.847zm0 0"/>
    </clipPath>
    <clipPath id="57a39e2ac3">
      <path d="M0 0h592v471H0z"/>
    </clipPath>
    <clipPath id="4c8efd6249">
      <path d="M51 43.2h712V783H51zm0 0"/>
    </clipPath>
    <clipPath id="8cd535687d">
      <path d="M51.45 365.023c8.027-49.347 13.277-63.074 18.675-75.148 5.023-11.398 14.102-20.176 17.25-31.95 3.45-12.6-3.898-29.85 1.273-41.624 5.176-11.852 18.528-21.676 29.625-29.324 10.801-7.579 23.852-12.079 36-16.727 11.778-4.5 33.75-8.926 35.704-10.8.296-.223.148-.376.222-.677.3-.75 1.352-3.75 1.352-3.75 0-.074 1.426-2.25 2.176-3.375.75-1.125 2.171-3.296 2.171-3.375.079 0 1.954-1.796 2.926-2.699.977-.898 2.926-2.7 2.926-2.773.148-.153 16.727-29.778 28.875-41.778 12.977-12.597 32.324-24.523 47.55-31.273 12.302-5.55 24.075-5.852 35.848-9.375 11.704-3.523 22.204-8.926 34.5-11.7 13.579-3 30.375-6.374 43.727-4.726 11.926 1.426 31.875 9.375 32.852 12 .222.602-1.125 1.051-.903 1.653.824 2.171 19.653 1.949 25.8 7.875 6.825 6.597 6.825 28.796 11.103 32.097 1.722 1.352 2.773.301 5.472.375 7.352.153 27.824-.449 41.25-1.273 13.05-.903 25.05-3.074 38.25-3.824 14.25-.903 30.676-3.301 44.324-.829 12.602 2.25 23.176 8.176 34.954 13.801 12.824 6.074 31.5 15.903 39 21.903 3.75 2.921 7.199 7.875 7.199 7.875.075.074 1.723 2.546 2.626 3.824.898 1.347 2.625 3.824 2.625 3.898.074.074 1.125 2.926 1.648 4.426.527 1.426 1.652 4.273 1.652 4.352 0 .074.375 3.074.523 4.648.148 1.574.523 4.574.523 4.648 0 .079-.375 3.153-.597 4.653-.153 1.426-1.278 2.625-.528 4.273 2.028 4.653 20.176 11.028 27.153 19.95 7.648 9.976 11.324 24.828 15.375 38.328 4.347 14.546 8.398 31.347 9.375 46.199.972 13.5 1.347 29.472-2.477 39.074-2.7 6.75-13.2 10.574-12.598 15.074.597 4.653 11.398 5.926 16.796 12.227 8.551 9.972 19.426 30.75 24.153 46.8 4.426 15.15 5.097 32.25 4.5 46.575-.45 12.45-6.602 30.375-6.074 34.648.074 1.05.75 1.8.824 1.875 0 0 .524 2.926.75 4.426.302 1.5.825 4.5.825 4.5 0 .074-.227 3.074-.3 4.574-.15 1.5-.302 4.5-.302 4.574-.074.079-.972 2.852-1.421 4.352-.454 1.426-1.352 4.273-1.352 4.352-.074.074-3.227 6.296-5.102 10.273-2.472 5.324-5.773 12.45-8.25 18.977-2.546 6.671-3.597 13.046-6.597 20.699-4.051 10.052-12.528 26.552-16.5 34.2-2.028 3.898-4.875 8.625-4.95 8.625 0 .074-1.8 2.477-2.703 3.676-.898 1.199-2.699 3.597-2.773 3.676 0 .074-2.324 1.949-3.523 2.921-1.125.903-3.454 2.852-3.528 2.852-.074.074-3.074 1.125-3.898 1.875-.602.523-.602.977-1.051 1.574-.602 1.051-2.398 3.824-2.398 3.824v.079c-.079 0-2.176 2.023-3.301 3.074-1.051 1.05-3.227 3.148-3.227 3.148-.075.074-2.626 1.5-3.973 2.25-1.278.824-2.852 1.727-3.903 2.324-.676.375-.898.528-1.722.903-1.801.75-5.25 1.574-8.926 2.699-5.926 1.95-18.301 5.852-23.176 8.023-2.324 1.051-3.602 1.727-5.023 2.704-1.278.898-3.153 2.625-3.153 2.699-.074 0-2.699 1.273-4.05 1.949-1.274.676-3.9 1.95-3.973 2.023 0 0-.824 0-1.727.375-4.199 1.5-32.097 15.227-33.3 18.079-.223.523.374 1.199.374 1.273 0 .074.153 3 .227 4.5.148 1.574.3 4.5.3 4.574 0 .074-.6 3-.823 4.5-.301 1.5-.903 4.426-.903 4.426 0 .074-1.273 2.773-1.875 4.2-.597 1.35-1.875 4.05-1.875 4.124-.074 0-1.875 2.402-2.847 3.527-.977 1.199-2.778 3.523-2.852 3.597 0 .074-2.398 1.875-3.602 2.778-1.199.972-3.523 2.773-3.597 2.773 0 .074-2.778 1.273-4.125 1.875-1.426.602-4.125 1.8-4.2 1.875-.152.074-11.328 22.125-19.425 32.102-8.852 10.722-20.852 22.046-32.25 29.546-10.278 6.829-20.551 12.676-32.25 14.926-12.824 2.402-28.5.073-41.852-2.4-12.824-2.402-24.074-8.323-36.75-11.777-13.273-3.523-31.2-.296-41.324-8.921-11.625-9.977-22.426-45-20.398-52.426.671-2.551 5.324-3.75 5.171-4.125-.148-.227-1.199.222-2.472.523-5.55 1.2-29.028 6.977-43.2 9.676-13.5 2.55-26.027 5.477-39.902 6.3-15 .9-32.324.75-47.176-1.573-13.648-2.25-26.097-6.079-38.699-11.477-13.2-5.55-28.722-11.25-38.472-21.898-10.352-11.329-21.75-39.829-20.852-45.227.227-1.426 2.25-1.2 2.25-2.324-.148-3.301-15.227-11.778-22.2-19.352-7.726-8.4-17.402-18.45-21.527-29.25-4.046-10.723-4.5-23.626-3.296-35.325 1.273-12 8.25-23.25 11.097-35.852 3.153-13.574 7.653-29.023 6.602-42.972-.977-13.727-5.852-28.653-12.227-40.05-5.773-10.353-18.3-15.524-23.097-26.177-5.25-11.773-5.028-42.3-5.028-42.3m67.5 4.953c35.551 35.171 44.403 44.847 48.227 55.949 3.824 11.25 2.55 23.847 2.023 37.2-.676 15.75-2.926 35.1-6.898 51.3-3.824 15.523-19.95 32.773-16.2 44.176 3.524 10.796 22.575 18.75 35.473 23.324 12.676 4.426 27.676 2.324 41.25 3.972 13.278 1.653 24.977 3.153 39.375 5.852 17.7 3.45 58.426 13.8 58.8 13.8.075 0 3.075.15 4.65.223 1.5.079 4.5.153 4.578.153.074 0 3 .898 4.421 1.347 1.5.375 4.426 1.204 4.5 1.278 0 0 2.625 1.5 3.977 2.324 1.352.75 3.977 2.25 3.977 2.25.074.074 2.25 2.176 3.375 3.227 1.125 1.046 3.296 3.148 3.296 3.222.079.074 1.875 2.926 2.477 3.903.375.597.227 1.125.898 1.421 2.625 1.051 15.079-4.347 25.5-5.472 15.829-1.653 43.352 2.398 60.528-.153 13.2-2.023 24.074-5.546 34.273-10.5 9.45-4.5 21.227-14.25 25.125-17.097 1.2-.903 1.426-1.2 2.324-1.875 1.278-.903 3.153-1.95 4.579-2.852 1.347-.825 2.625-1.5 3.898-2.25 1.273-.75 3.824-2.177 3.824-2.25.074 0 2.852-.825 4.278-1.2 1.421-.45 4.273-1.273 4.273-1.273h.074s2.926-.153 4.426-.227c1.5 0 4.426-.148 4.426-.148.074 0 2.926.597 4.426.898 1.421.3 4.273.824 4.347.898.074 0 2.7 1.204 4.051 1.875 1.352.602 3.977 1.875 3.977 1.875.074.079 2.324 1.875 3.523 2.852 1.125.898 3.375 2.773 3.45 2.773 0 .079 2.175 3 2.698 3.602.153.227.079.375.301.45 1.573.3 15.448-9.45 21.823-13.052 4.954-2.847 10.278-4.722 13.204-7.125 1.875-1.574 1.722-2.472 3.75-4.722 6.375-6.977 29.921-31.801 42.148-41.028 8.023-6 16.05-6 21.75-12.296 6.602-7.278 12.523-28.278 13.426-30.602.148-.3.074-.148.148-.45.823-3.374 10.425-43.05 9.527-60.226-.676-13.05-2.852-24.898-9.079-34.05-6.148-9.075-28.125-19.348-27.824-20.7 0-.222.903-.148.903-.222 0-.153-.676-.227-1.204-.375-.972-.375-4.199-1.426-4.273-1.426 0-.074-2.477-1.574-3.75-2.403-1.273-.824-3.75-2.398-3.824-2.398 0-.074-2.028-2.176-3.074-3.227-1.051-1.046-3.079-3.148-3.079-3.222-.074-.074-1.5-2.625-2.25-3.903-.75-1.273-2.25-3.824-2.25-3.898-.074 0-.824-2.852-1.273-4.273-.375-1.426-1.2-4.278-1.273-4.278 0-.074-.079-3-.153-4.5s-.148-4.426-.148-4.5c0-.074.597-2.926.898-4.347.227-1.5.824-4.352.824-4.426.079-.074 1.278-2.7 1.954-4.05.671-1.353 1.875-3.978 1.949-4.052 0 0 1.876-2.324 2.774-3.45.977-1.124 2.852-3.448 2.852-3.448.222-.074 21.222-4.653 25.125-11.55 4.347-7.876-1.051-24.302-4.574-35.927-3.602-12.074-9.227-26.023-17.477-35.097-7.727-8.477-18.75-12.454-29.55-18.528-12.223-6.898-28.876-15.824-40.126-20.25-7.722-3.074-14.926-4.648-20.097-5.926-3.301-.824-4.426-1.046-8.102-1.722-7.8-1.352-28.125-4.278-36.45-5.176-4.425-.523-9.976-.75-10.05-.75h-.074c-.074 0-3.903-.898-4.352-.977h-.148c-1.727-.222-34.426 1.426-50.176.079-14.324-1.278-27.074-7.352-40.5-7.204-13.2.227-25.273 4.426-39.375 8.176-16.727 4.5-48.676 13.426-54.074 17.852-1.278 1.125-1.125 1.95-1.653 3-.597 1.273-1.046 3.074-1.722 4.125-.45.676-1.05 1.05-1.426 1.648-.45.602-.523 1.278-1.125 1.95-.676.902-2.176 1.874-3.227 2.925-1.046 1.05-1.949 2.55-2.921 3.3-.676.603-1.278.677-1.875 1.126-.602.45-.977 1.05-1.653 1.5-1.05.676-2.7 1.125-4.05 1.8-1.274.677-2.7 1.802-3.825 2.177-.75.296-1.426.222-2.176.449-.671.222-1.199.676-2.023.898-1.125.3-2.926.153-4.352.375-1.5.227-3.148.824-4.347.903-.824 0-1.426-.301-2.176-.301-.75 0-1.648.222-2.25.222-.375-.074-1.05-.375-1.05-.296-.075.148 5.1 1.5 5.1 2.921.15 3.829-22.425 18.829-34.8 21.977-11.852 2.926-26.773-6.45-37.8-2.773-10.876 3.75-20.626 14.625-27.75 24.75-7.65 10.722-10.2 26.097-15.825 38.398-5.477 11.926-11.773 23.023-17.55 34.352-5.552 11.25-16.5 33.375-16.5 33.375"/>
    </clipPath>
    <clipPath id="99e1c61fb2">
      <path d="M.121.2h711.84V740H.12zm0 0"/>
    </clipPath>
    <clipPath id="f245e5b5d9">
      <path d="M.45 322.023c8.027-49.347 13.277-63.074 18.675-75.148 5.023-11.398 14.102-20.176 17.25-31.95 3.45-12.6-3.898-29.85 1.273-41.624 5.176-11.852 18.528-21.676 29.625-29.324 10.801-7.579 23.852-12.079 36-16.727 11.778-4.5 33.75-8.926 35.704-10.8.296-.223.148-.376.222-.677.3-.75 1.352-3.75 1.352-3.75 0-.074 1.426-2.25 2.176-3.375.75-1.125 2.171-3.296 2.171-3.375.079 0 1.954-1.796 2.926-2.699.977-.898 2.926-2.699 2.926-2.773.148-.153 16.727-29.778 28.875-41.778 12.977-12.597 32.324-24.523 47.55-31.273 12.302-5.55 24.075-5.852 35.848-9.375 11.704-3.523 22.204-8.926 34.5-11.7 13.579-3 30.375-6.374 43.727-4.726 11.926 1.426 31.875 9.375 32.852 12 .222.602-1.125 1.051-.903 1.653.824 2.171 19.653 1.949 25.8 7.875 6.825 6.597 6.825 28.796 11.103 32.097 1.722 1.352 2.773.301 5.472.375 7.352.153 27.824-.449 41.25-1.273 13.05-.903 25.05-3.074 38.25-3.824 14.25-.903 30.676-3.301 44.324-.829 12.602 2.25 23.176 8.176 34.954 13.801 12.824 6.074 31.5 15.903 39 21.903 3.75 2.921 7.199 7.875 7.199 7.875.075.074 1.723 2.546 2.626 3.824.898 1.347 2.625 3.824 2.625 3.898.074.074 1.125 2.926 1.648 4.426.527 1.426 1.652 4.273 1.652 4.352 0 .074.375 3.074.523 4.648.148 1.574.523 4.574.523 4.648 0 .079-.375 3.153-.597 4.653-.153 1.426-1.278 2.625-.528 4.273 2.028 4.653 20.176 11.028 27.153 19.95 7.648 9.976 11.324 24.828 15.375 38.328 4.347 14.546 8.398 31.347 9.375 46.199.972 13.5 1.347 29.472-2.477 39.074-2.7 6.75-13.2 10.574-12.598 15.074.597 4.653 11.398 5.926 16.796 12.227 8.551 9.972 19.426 30.75 24.153 46.8 4.426 15.15 5.097 32.25 4.5 46.575-.45 12.45-6.602 30.375-6.074 34.648.074 1.05.75 1.8.824 1.875 0 0 .524 2.926.75 4.426.302 1.5.825 4.5.825 4.5 0 .074-.227 3.074-.3 4.574-.15 1.5-.302 4.5-.302 4.574-.074.079-.972 2.852-1.421 4.352-.454 1.426-1.352 4.273-1.352 4.352-.074.074-3.227 6.296-5.102 10.273-2.472 5.324-5.773 12.45-8.25 18.977-2.546 6.671-3.597 13.046-6.597 20.699-4.051 10.05-12.528 26.55-16.5 34.2-2.028 3.897-4.875 8.624-4.95 8.624 0 .074-1.8 2.477-2.703 3.676-.898 1.199-2.699 3.597-2.773 3.676 0 .074-2.324 1.949-3.523 2.921-1.125.903-3.454 2.852-3.528 2.852-.074.074-3.074 1.125-3.898 1.875-.602.523-.602.977-1.051 1.574-.602 1.051-2.398 3.824-2.398 3.824v.079c-.079 0-2.176 2.023-3.301 3.074-1.051 1.05-3.227 3.148-3.227 3.148-.075.074-2.626 1.5-3.973 2.25-1.278.824-2.852 1.727-3.903 2.324-.676.375-.898.528-1.722.903-1.801.75-5.25 1.574-8.926 2.699-5.926 1.95-18.301 5.852-23.176 8.023-2.324 1.051-3.602 1.727-5.023 2.704-1.278.898-3.153 2.625-3.153 2.699-.074 0-2.699 1.273-4.05 1.949-1.274.676-3.9 1.95-3.973 2.023 0 0-.824 0-1.727.375-4.199 1.5-32.097 15.227-33.3 18.079-.223.523.374 1.199.374 1.273 0 .074.153 3 .227 4.5.148 1.574.3 4.5.3 4.574 0 .074-.6 3-.823 4.5-.301 1.5-.903 4.426-.903 4.426 0 .074-1.273 2.773-1.875 4.2-.597 1.35-1.875 4.05-1.875 4.124-.074 0-1.875 2.402-2.847 3.527-.977 1.199-2.778 3.523-2.852 3.597 0 .074-2.398 1.875-3.602 2.778-1.199.972-3.523 2.773-3.597 2.773 0 .074-2.778 1.273-4.125 1.875-1.426.602-4.125 1.8-4.2 1.875-.152.074-11.328 22.125-19.425 32.102-8.852 10.722-20.852 22.046-32.25 29.546-10.278 6.829-20.55 12.676-32.25 14.926-12.824 2.402-28.5.073-41.852-2.4-12.824-2.402-24.074-8.323-36.75-11.777-13.273-3.523-31.2-.296-41.324-8.921-11.625-9.977-22.426-45-20.398-52.426.671-2.551 5.324-3.75 5.171-4.125-.148-.227-1.199.222-2.472.523-5.55 1.2-29.028 6.977-43.2 9.676-13.5 2.55-26.027 5.477-39.902 6.3-15 .9-32.324.75-47.176-1.573-13.648-2.25-26.097-6.079-38.699-11.477C114 657.2 98.477 651.5 88.727 640.852c-10.352-11.329-21.75-39.829-20.852-45.227.227-1.426 2.25-1.2 2.25-2.324-.148-3.301-15.227-11.778-22.2-19.352-7.726-8.4-17.402-18.45-21.527-29.25-4.046-10.723-4.5-23.626-3.296-35.325 1.273-12 8.25-23.25 11.097-35.852 3.153-13.574 7.653-29.023 6.602-42.972-.977-13.727-5.852-28.653-12.227-40.05-5.773-10.353-18.3-15.524-23.097-26.177-5.25-11.773-5.028-42.3-5.028-42.3m67.5 4.953c35.55 35.171 44.402 44.847 48.226 55.949 3.824 11.25 2.55 23.847 2.023 37.2-.676 15.75-2.926 35.1-6.898 51.3-3.824 15.523-19.95 32.773-16.2 44.176 3.524 10.796 22.575 18.75 35.473 23.324 12.676 4.426 27.676 2.324 41.25 3.972 13.278 1.653 24.977 3.153 39.375 5.852 17.7 3.45 58.426 13.8 58.8 13.8.075 0 3.075.15 4.65.223 1.5.079 4.5.153 4.578.153.074 0 3 .898 4.421 1.347 1.5.375 4.426 1.204 4.5 1.278 0 0 2.625 1.5 3.977 2.324 1.352.75 3.977 2.25 3.977 2.25.074.074 2.25 2.176 3.375 3.227 1.125 1.046 3.296 3.148 3.296 3.222.079.074 1.875 2.926 2.477 3.903.375.597.227 1.125.898 1.421 2.625 1.051 15.079-4.347 25.5-5.472 15.829-1.653 43.352 2.398 60.528-.153 13.2-2.023 24.074-5.546 34.273-10.5 9.45-4.5 21.227-14.25 25.125-17.097 1.2-.903 1.426-1.2 2.324-1.875 1.278-.903 3.153-1.95 4.579-2.852 1.347-.825 2.625-1.5 3.898-2.25 1.273-.75 3.824-2.177 3.824-2.25.074 0 2.852-.825 4.278-1.2 1.421-.45 4.273-1.273 4.273-1.273h.074s2.926-.153 4.426-.227c1.5 0 4.426-.148 4.426-.148.074 0 2.926.597 4.426.898 1.421.3 4.273.824 4.347.898.074 0 2.7 1.204 4.05 1.875 1.353.602 3.978 1.875 3.978 1.875.074.079 2.324 1.875 3.523 2.852 1.125.898 3.375 2.773 3.45 2.773 0 .079 2.175 3 2.698 3.602.153.227.079.375.301.45 1.574.3 15.45-9.45 21.824-13.052 4.954-2.847 10.278-4.722 13.204-7.125 1.875-1.574 1.722-2.472 3.75-4.722 6.375-6.977 29.921-31.801 42.148-41.028 8.023-6 16.05-6 21.75-12.296 6.602-7.278 12.523-28.278 13.426-30.602.148-.3.074-.148.148-.45.823-3.374 10.425-43.05 9.527-60.226-.676-13.05-2.852-24.898-9.079-34.05-6.148-9.075-28.125-19.348-27.824-20.7 0-.222.903-.148.903-.222 0-.153-.676-.227-1.204-.375-.972-.375-4.199-1.426-4.273-1.426 0-.074-2.477-1.574-3.75-2.403-1.273-.824-3.75-2.398-3.824-2.398 0-.074-2.028-2.176-3.074-3.227-1.051-1.046-3.079-3.148-3.079-3.222-.074-.074-1.5-2.625-2.25-3.903-.75-1.273-2.25-3.824-2.25-3.898-.074 0-.824-2.852-1.273-4.273-.375-1.426-1.2-4.278-1.273-4.278 0-.074-.079-3-.153-4.5s-.148-4.426-.148-4.5c0-.074.597-2.926.898-4.347.227-1.5.824-4.352.824-4.426.079-.074 1.278-2.7 1.954-4.05.671-1.353 1.875-3.978 1.949-4.052 0 0 1.876-2.324 2.774-3.45.977-1.124 2.852-3.448 2.852-3.448.222-.074 21.222-4.653 25.125-11.55 4.347-7.876-1.051-24.302-4.574-35.927-3.602-12.074-9.227-26.023-17.477-35.097-7.727-8.477-18.75-12.454-29.55-18.528-12.223-6.898-28.876-15.824-40.126-20.25-7.722-3.074-14.926-4.648-20.097-5.926-3.301-.824-4.426-1.046-8.102-1.722-7.8-1.352-28.125-4.278-36.45-5.176-4.425-.523-9.976-.75-10.05-.75h-.074c-.074 0-3.903-.898-4.352-.977h-.148c-1.727-.222-34.426 1.426-50.176.079-14.324-1.278-27.074-7.352-40.5-7.204-13.2.227-25.273 4.426-39.375 8.176-16.727 4.5-48.676 13.426-54.074 17.852-1.278 1.125-1.125 1.95-1.653 3-.597 1.273-1.046 3.074-1.722 4.125-.45.676-1.05 1.05-1.426 1.648-.45.602-.523 1.278-1.125 1.95-.676.902-2.176 1.874-3.227 2.925-1.046 1.05-1.949 2.55-2.921 3.3-.676.603-1.278.677-1.875 1.126-.602.45-.977 1.05-1.653 1.5-1.05.676-2.7 1.125-4.05 1.8-1.274.677-2.7 1.802-3.825 2.177-.75.296-1.426.222-2.176.449-.671.222-1.199.676-2.023.898-1.125.3-2.926.153-4.352.375-1.5.227-3.148.824-4.347.903-.824 0-1.426-.301-2.176-.301-.75 0-1.648.222-2.25.222-.375-.074-1.05-.375-1.05-.296-.075.148 5.1 1.5 5.1 2.921.15 3.829-22.425 18.829-34.8 21.977-11.852 2.926-26.773-6.45-37.8-2.773-10.876 3.75-20.626 14.625-27.75 24.75-7.65 10.722-10.2 26.097-15.825 38.398-5.477 11.926-11.773 23.023-17.55 34.352-5.552 11.25-16.5 33.375-16.5 33.375"/>
    </clipPath>
    <clipPath id="15e472c724">
      <path d="M0 0h712v740H0z"/>
    </clipPath>
  </defs>
  <g clip-path="url(#e1aa8b1556)">
    <g clip-path="url(#57a39e2ac3)" transform="translate(108 167)">
      <g clip-path="url(#a237756b5b)">
        <path fill="#fff" d="M.848.5h591.058v469.91H.848zm0 0"/>
      </g>
    </g>
  </g>
  <g clip-path="url(#4c8efd6249)">
    <g clip-path="url(#8cd535687d)">
      <g clip-path="url(#15e472c724)" transform="translate(51 43)">
        <g clip-path="url(#99e1c61fb2)">
          <g clip-path="url(#f245e5b5d9)">
            <path fill="#fff" d="M-229.2-221.2H937.2V945.2H-229.2z"/>
          </g>
        </g>
      </g>
    </g>
  </g>
  <path d="M752.016 331.46a201.656 201.656 0 0 0 9.113-41.882 202.48 202.48 0 0 0 .074-42.863 202.25 202.25 0 0 0-8.976-41.914 202.193 202.193 0 0 0-17.617-39.078 204.834 204.834 0 0 0-8.548-13.61c-1.515-2.21-3.07-4.39-4.671-6.543a208.722 208.722 0 0 0-4.922-6.351 199.334 199.334 0 0 0-5.172-6.153c-1.762-2.02-3.567-4-5.406-5.949a205.212 205.212 0 0 0-17.57-16.496 203.898 203.898 0 0 0-6.273-5.02 196.942 196.942 0 0 0-6.469-4.773 200.789 200.789 0 0 0-13.473-8.762 192.4 192.4 0 0 0-6.984-3.976 198.954 198.954 0 0 0-7.137-3.7 204.924 204.924 0 0 0-14.68-6.543 207.446 207.446 0 0 0-15.148-5.363 214.704 214.704 0 0 0-7.722-2.23 200.676 200.676 0 0 0-15.676-3.54 202.147 202.147 0 0 0-7.934-1.304 202.07 202.07 0 0 0-15.984-1.668 203.96 203.96 0 0 0-8.028-.363 204.28 204.28 0 0 0-16.07.23c-2.676.145-5.347.34-8.015.586-2.668.25-5.332.551-7.989.907a202 202 0 0 0-15.836 2.746 204.088 204.088 0 0 0-9.273-9.66 203.97 203.97 0 0 0-9.883-9.032 205.143 205.143 0 0 0-21.434-16.035 204.085 204.085 0 0 0-23.34-13.098 205.895 205.895 0 0 0-12.261-5.378 205.922 205.922 0 0 0-12.589-4.563 204.037 204.037 0 0 0-12.86-3.73 201.514 201.514 0 0 0-13.072-2.883A204.21 204.21 0 0 0 373.608.292a203.968 203.968 0 0 0-13.386-.277c-4.465.054-8.922.254-13.375.597a205.3 205.3 0 0 0-13.309 1.473 203.204 203.204 0 0 0-13.184 2.34 205.003 205.003 0 0 0-25.77 7.23 206.613 206.613 0 0 0-12.476 4.867 206.054 206.054 0 0 0-12.129 5.668 205.013 205.013 0 0 0-33.813 21.582 205.397 205.397 0 0 0-19.913 17.883 205.04 205.04 0 0 0-25.086 31.3 204.915 204.915 0 0 0-23.07 48.18 201.523 201.523 0 0 0-20.77 5.423 202.188 202.188 0 0 0-20.078 7.597 201.344 201.344 0 0 0-19.156 9.688 200.69 200.69 0 0 0-18.024 11.664 202.7 202.7 0 0 0-16.683 13.508 202.377 202.377 0 0 0-15.153 15.207 201.875 201.875 0 0 0-13.453 16.726 201.262 201.262 0 0 0-11.605 18.063 209.268 209.268 0 0 0-3.91 7.035 213.098 213.098 0 0 0-3.63 7.183 206.222 206.222 0 0 0-9.148 22.333 201.102 201.102 0 0 0-2.453 7.667 205.25 205.25 0 0 0-2.152 7.754 207.21 207.21 0 0 0-3.375 15.739 210.223 210.223 0 0 0-1.219 7.957 203.44 203.44 0 0 0-.906 7.996 204.204 204.204 0 0 0-.586 8.027c-.145 2.68-.234 5.363-.274 8.043-.039 2.684-.023 5.367.047 8.05.067 2.684.188 5.364.36 8.04.175 2.68.402 5.351.68 8.023.28 2.667.613 5.327.995 7.984.387 2.656.825 5.304 1.313 7.941.488 2.64 1.027 5.27 1.621 7.887a207.144 207.144 0 0 0 1.93 7.812c.695 2.59 1.441 5.168 2.238 7.73a205.375 205.375 0 0 0 5.383 15.168 202.517 202.517 0 0 0 3.137 7.415 205.898 205.898 0 0 0 7.133 14.426 205.458 205.458 0 0 0 3.988 6.992 201.392 201.392 0 0 0 4.261 6.828 207.698 207.698 0 0 0 4.528 6.656 209.302 209.302 0 0 0 4.785 6.469 205.843 205.843 0 0 0 10.32 12.352 201.905 201.905 0 0 0-9.281 84.734 201.334 201.334 0 0 0 3.355 21.195 200.936 200.936 0 0 0 5.586 20.722 201.678 201.678 0 0 0 7.75 20.012 202.157 202.157 0 0 0 9.836 19.074 204.938 204.938 0 0 0 8.559 13.613 202.903 202.903 0 0 0 4.676 6.543 204.36 204.36 0 0 0 10.105 12.512c1.766 2.02 3.567 4 5.41 5.95a205.353 205.353 0 0 0 11.512 11.23 205.128 205.128 0 0 0 6.074 5.27 204.332 204.332 0 0 0 12.754 9.796 213.834 213.834 0 0 0 6.652 4.515c2.25 1.461 4.528 2.875 6.829 4.247a202.35 202.35 0 0 0 6.992 3.976 202.133 202.133 0 0 0 14.422 7.113 202.186 202.186 0 0 0 7.41 3.13 207.697 207.697 0 0 0 15.16 5.363c2.563.793 5.138 1.535 7.728 2.23 2.59.692 5.19 1.332 7.808 1.922a208.54 208.54 0 0 0 7.88 1.617c2.636.485 5.28.922 7.933 1.305 2.656.379 5.316.71 7.984.988a203.15 203.15 0 0 0 16.047 1.035 204.438 204.438 0 0 0 24.098-.82c2.671-.25 5.335-.55 7.992-.906a209.82 209.82 0 0 0 7.949-1.22c2.64-.46 5.273-.968 7.894-1.53a202.001 202.001 0 0 0 88.793 58.04 201.073 201.073 0 0 0 20.735 5.514 201.358 201.358 0 0 0 21.207 3.29c7.125.718 14.27 1.058 21.433 1.02 2.684.003 5.368-.048 8.051-.153 2.684-.102 5.363-.258 8.043-.47 2.676-.206 5.348-.468 8.016-.784a202.91 202.91 0 0 0 23.777-4.239c2.613-.625 5.211-1.304 7.797-2.035a198.657 198.657 0 0 0 7.707-2.34 205.64 205.64 0 0 0 15.11-5.578c2.48-1.03 4.937-2.11 7.374-3.234a202.95 202.95 0 0 0 14.348-7.324A202.943 202.943 0 0 0 568.07 770.8a205.152 205.152 0 0 0 6.418-4.871 211.025 211.025 0 0 0 6.22-5.121 205.86 205.86 0 0 0 6.01-5.364 200.623 200.623 0 0 0 5.794-5.593A200.787 200.787 0 0 0 603.422 738a200.194 200.194 0 0 0 5.094-6.238 203.607 203.607 0 0 0 17.812-26.813 209.609 209.609 0 0 0 3.777-7.113 202.725 202.725 0 0 0 3.489-7.258 202.988 202.988 0 0 0 8.726-22.523 202.562 202.562 0 0 0 20.77-5.43 203.492 203.492 0 0 0 20.074-7.602 203.208 203.208 0 0 0 19.156-9.687 202.09 202.09 0 0 0 18.02-11.668 201.99 201.99 0 0 0 31.836-28.71 202.108 202.108 0 0 0 25.066-34.781 207.568 207.568 0 0 0 3.863-7.025 197.807 197.807 0 0 0 3.582-7.172 200.775 200.775 0 0 0 3.301-7.304 194.487 194.487 0 0 0 3.012-7.434 201.685 201.685 0 0 0 5.137-15.184 207.326 207.326 0 0 0 3.934-15.54c.55-2.616 1.054-5.24 1.503-7.873.45-2.637.848-5.278 1.196-7.93.347-2.649.64-5.305.882-7.965.243-2.664.434-5.328.57-8 .141-2.668.227-5.34.258-8.012.036-2.672.016-5.343-.058-8.015a202.993 202.993 0 0 0-1.059-15.996 209.494 209.494 0 0 0-.996-7.954 208.595 208.595 0 0 0-2.93-15.761c-.593-2.606-1.234-5.2-1.925-7.782a211.42 211.42 0 0 0-2.23-7.703 201.62 201.62 0 0 0-2.532-7.605 199.47 199.47 0 0 0-2.824-7.504 204.5 204.5 0 0 0-37.91-60.953zM447.523 756.985c-4.394.008-8.78-.175-13.156-.55-4.375-.375-8.73-.942-13.055-1.7a150.506 150.506 0 0 1-25.426-6.762 149.22 149.22 0 0 1-12.171-5.015 151.093 151.093 0 0 1-11.692-6.055 150.245 150.245 0 0 1-11.117-7.05 150.425 150.425 0 0 1-10.465-7.993l4.79-2.714 161.269-93.09a27 27 0 0 0 2.871-1.942 26.867 26.867 0 0 0 9.453-14.191c.301-1.121.531-2.254.688-3.402.156-1.145.234-2.301.242-3.457V375.69l68.176 39.442c.34.172.625.414.851.722.227.31.367.653.43 1.032V605.3c-.003 2.481-.07 4.962-.198 7.438-.125 2.477-.313 4.95-.559 7.418-.25 2.47-.558 4.93-.926 7.383a149.796 149.796 0 0 1-1.285 7.332 154.503 154.503 0 0 1-1.64 7.258 147.616 147.616 0 0 1-1.997 7.168 150.56 150.56 0 0 1-5.027 14 153.158 153.158 0 0 1-6.375 13.445 152.162 152.162 0 0 1-11.941 18.836 154.39 154.39 0 0 1-9.442 11.496 152.027 152.027 0 0 1-5.133 5.39 148.461 148.461 0 0 1-5.39 5.13 150.417 150.417 0 0 1-11.496 9.441 152.162 152.162 0 0 1-46.281 23.348 153.474 153.474 0 0 1-14.426 3.637 150.59 150.59 0 0 1-7.332 1.28 151.168 151.168 0 0 1-22.239 1.684zm-326.05-139.23a151.31 151.31 0 0 1-11.157-23.844 151.696 151.696 0 0 1-3.976-12.562 151.382 151.382 0 0 1-4.598-25.918 151.072 151.072 0 0 1-.023-26.325c.382-4.378.952-8.734 1.71-13.066l4.793 2.879 161.425 93.086a25.576 25.576 0 0 0 3.086 1.547c1.063.445 2.149.82 3.262 1.125a26.191 26.191 0 0 0 6.824.91 26.324 26.324 0 0 0 6.828-.91c1.11-.305 2.2-.68 3.262-1.125 1.063-.446 2.09-.961 3.086-1.547L493.188 498.32v78.72c-.04.87-.41 1.562-1.122 2.073l-163.34 94.207a148.976 148.976 0 0 1-6.542 3.555 151.176 151.176 0 0 1-13.563 6.133c-2.312.91-4.64 1.765-6.992 2.562a155.802 155.802 0 0 1-7.11 2.211c-2.386.684-4.789 1.301-7.207 1.864a149.92 149.92 0 0 1-7.292 1.507c-2.442.446-4.895.828-7.356 1.149-2.46.324-4.93.586-7.402.789-2.477.2-4.953.34-7.434.422-2.484.078-4.965.097-7.445.058a152.437 152.437 0 0 1-14.856-.98 151.447 151.447 0 0 1-7.375-1.035c-2.449-.403-4.886-.867-7.312-1.395a151.172 151.172 0 0 1-14.379-3.855 150.775 150.775 0 0 1-20.688-8.371 150.812 150.812 0 0 1-13.012-7.23 152.297 152.297 0 0 1-6.226-4.083 153.572 153.572 0 0 1-11.812-9.058 151.91 151.91 0 0 1-5.559-4.954 152.132 152.132 0 0 1-5.309-5.222 148.636 148.636 0 0 1-5.046-5.473c-1.641-1.863-3.23-3.77-4.774-5.715a151.642 151.642 0 0 1-12.562-18.445zm-42.47-351.277a151.114 151.114 0 0 1 7.142-11.172 152.606 152.606 0 0 1 8.097-10.504 151.462 151.462 0 0 1 18.781-18.684 152.572 152.572 0 0 1 10.547-8.039 153.245 153.245 0 0 1 11.207-7.086 151.22 151.22 0 0 1 11.79-6.074 150.764 150.764 0 0 1 12.269-5.023V391.5a26.044 26.044 0 0 0 .828 6.832 25.914 25.914 0 0 0 2.598 6.375 26.93 26.93 0 0 0 1.91 2.871 26.087 26.087 0 0 0 4.879 4.856 26.166 26.166 0 0 0 2.879 1.898L368.164 527.54l-68.176 39.438c-.375.199-.777.296-1.199.296-.426 0-.824-.097-1.2-.296l-163.023-94.043a154.822 154.822 0 0 1-6.343-3.891 149.534 149.534 0 0 1-6.149-4.195 150.667 150.667 0 0 1-11.644-9.27 151.755 151.755 0 0 1-5.47-5.047c-1.78-1.73-3.519-3.499-5.214-5.311a148.262 148.262 0 0 1-4.945-5.563 147.646 147.646 0 0 1-4.671-5.793 153.51 153.51 0 0 1-8.461-12.246 150.515 150.515 0 0 1-3.77-6.414 153.34 153.34 0 0 1-3.453-6.594 148.88 148.88 0 0 1-3.125-6.757 149.633 149.633 0 0 1-5.242-13.93 153.523 153.523 0 0 1-3.855-14.371 154.6 154.6 0 0 1-1.395-7.313 151.868 151.868 0 0 1-2.016-22.223 152.462 152.462 0 0 1 .473-14.87c.203-2.477.461-4.942.785-7.403a150.59 150.59 0 0 1 4.504-21.855 150.853 150.853 0 0 1 4.762-14.098 150.674 150.674 0 0 1 9.668-20.11zM639.13 396.609L442.254 282.285 510.274 243c.374-.2.773-.297 1.199-.297.422 0 .82.098 1.195.297l163.023 94.207a151.663 151.663 0 0 1 9.09 5.68c2.961 2 5.848 4.105 8.664 6.308a152.39 152.39 0 0 1 15.887 14.371 153.128 153.128 0 0 1 13.703 16.465 152.056 152.056 0 0 1 19.813 37.867 151.35 151.35 0 0 1 7.465 31.219c.46 3.543.792 7.102 1 10.672.207 3.566.289 7.14.242 10.715-.043 3.574-.215 7.14-.512 10.703a152.37 152.37 0 0 1-3.285 21.168 153.176 153.176 0 0 1-2.754 10.36 151.802 151.802 0 0 1-24.242 47.488 152.27 152.27 0 0 1-14.113 16.117 155.568 155.568 0 0 1-7.876 7.27c-2.71 2.327-5.5 4.562-8.37 6.695a151.718 151.718 0 0 1-8.82 6.09 154.892 154.892 0 0 1-9.228 5.449 150.881 150.881 0 0 1-19.496 8.879V419.117a26.605 26.605 0 0 0-.328-3.43 26.48 26.48 0 0 0-1.96-6.59 26.416 26.416 0 0 0-3.583-5.87 26.575 26.575 0 0 0-7.863-6.622zm67.86-102.027l-4.794-2.879L541.09 197.82a25.6 25.6 0 0 0-3.106-1.554 25.843 25.843 0 0 0-6.684-1.816 25.683 25.683 0 0 0-3.464-.231c-1.16-.001-2.313.073-3.465.23a25.971 25.971 0 0 0-6.683 1.816 25.6 25.6 0 0 0-3.106 1.554L317.555 311.504v-78.715c-.043-.411.02-.802.191-1.173.172-.37.43-.672.766-.906l163.023-94.046a152.702 152.702 0 0 1 19.309-9.375 151.732 151.732 0 0 1 10.101-3.637 153.157 153.157 0 0 1 10.336-2.918c3.48-.851 6.985-1.578 10.516-2.18a152.351 152.351 0 0 1 21.36-2.105c3.581-.097 7.16-.07 10.738.086 3.578.153 7.148.434 10.707.844 3.558.406 7.097.937 10.617 1.598 3.523.656 7.015 1.437 10.48 2.343a152.299 152.299 0 0 1 20.332 6.875 151.642 151.642 0 0 1 28.18 15.504 151.496 151.496 0 0 1 16.69 13.496 149.705 149.705 0 0 1 7.59 7.598 150.997 150.997 0 0 1 13.477 16.703 151.003 151.003 0 0 1 5.816 9.027 149.707 149.707 0 0 1 5.168 9.415c1.61 3.199 3.106 6.449 4.488 9.753a151.068 151.068 0 0 1 6.856 20.341 150.31 150.31 0 0 1 2.332 10.485c.656 3.52 1.183 7.062 1.586 10.62.402 3.56.68 7.13.832 10.708a151.425 151.425 0 0 1-.613 21.453 151.97 151.97 0 0 1-1.442 10.64zM280.343 434.125l-68.176-39.277c-.727-.438-1.152-1.075-1.281-1.914v-187.93c.004-3.582.136-7.156.394-10.73.258-3.57.64-7.13 1.149-10.676a153.852 153.852 0 0 1 1.902-10.567 151.024 151.024 0 0 1 6.02-20.598 151.367 151.367 0 0 1 14.304-28.8 151.628 151.628 0 0 1 12.778-17.242 152.783 152.783 0 0 1 7.27-7.898 152.204 152.204 0 0 1 24.895-20.36 152.17 152.17 0 0 1 28.62-14.655 150.345 150.345 0 0 1 10.151-3.497 151.364 151.364 0 0 1 31.574-6.085 151.305 151.305 0 0 1 21.461-.293 151.911 151.911 0 0 1 31.727 5.227c3.453.952 6.867 2.023 10.246 3.218a153.132 153.132 0 0 1 9.988 3.937 150.62 150.62 0 0 1 9.684 4.633 151.674 151.674 0 0 1 26.766 17.824l-4.794 2.72-161.261 93.081a26.366 26.366 0 0 0-5.469 4.242 26.395 26.395 0 0 0-2.281 2.614 26.842 26.842 0 0 0-5.504 16.136zm37.043-79.832l87.82-50.617 87.98 50.617v101.23l-87.66 50.614-87.976-50.614zm0 0"/>
</svg>
